<?xml version="1.0" encoding="utf-8"?>
<!-- Generator: Adobe Illustrator 21.0.2, SVG Export Plug-In . SVG Version: 6.00 Build 0)  -->
<svg version="1.1" id="Calque_1" xmlns="http://www.w3.org/2000/svg" xmlns:xlink="http://www.w3.org/1999/xlink" x="0px" y="0px"
	 viewBox="0 0 627 774.4" style="enable-background:new 0 0 627 774.4;" xml:space="preserve">
<style type="text/css">
	.st0{fill:url(#SVGID_1_);}
	.st1{fill:url(#SVGID_2_);}
	.st2{fill:url(#SVGID_3_);}
	.st3{fill:url(#SVGID_4_);}
	.st4{fill:url(#SVGID_5_);}
	.st5{fill:url(#SVGID_6_);}
	.st6{fill:url(#SVGID_7_);}
	.st7{fill:url(#SVGID_8_);}
	.st8{fill:url(#SVGID_9_);}
	.st9{fill:url(#SVGID_10_);}
	.st10{fill:url(#SVGID_11_);}
	.st11{fill:url(#SVGID_12_);}
	.st12{fill:url(#SVGID_13_);}
	.st13{fill:url(#SVGID_14_);}
	.st14{fill:url(#SVGID_15_);}
	.st15{fill:url(#SVGID_16_);}
	.st16{fill:url(#SVGID_17_);}
	.st17{fill:#8A8A8A;}
	.st18{fill:#FFFFFF;}
	.st19{filter:url(#Adobe_OpacityMaskFilter);}
	.st20{opacity:0.75;mask:url(#SVGID_18_);}
	.st21{fill:#AFAFAF;}
	.st22{fill:#CCCCCC;}
	.st23{fill:#E3E3E3;}
	.st24{fill:#F5F5F5;}
	.st25{fill:url(#SVGID_19_);}
	.st26{fill:#636363;}
	.st27{fill:url(#SVGID_20_);}
	.st28{fill:url(#SVGID_21_);}
	.st29{fill:url(#SVGID_22_);}
	.st30{fill:url(#SVGID_23_);}
	.st31{fill:url(#SVGID_24_);}
	.st32{fill:url(#SVGID_25_);}
	.st33{fill:url(#SVGID_26_);}
	.st34{fill:url(#SVGID_27_);}
	.st35{fill:url(#SVGID_28_);}
	.st36{fill:url(#SVGID_29_);}
	.st37{fill:url(#SVGID_30_);}
	.st38{fill:url(#SVGID_31_);}
	.st39{fill:url(#SVGID_32_);}
	.st40{fill:url(#SVGID_33_);}
	.st41{fill:url(#SVGID_34_);}
	.st42{fill:url(#SVGID_35_);}
	.st43{fill:#ED455F;stroke:#1D1D1B;stroke-width:3.340000e-02;stroke-miterlimit:10;}
	.st44{fill:none;stroke:#C2C2C2;stroke-miterlimit:10;}
	.st45{opacity:0.6;fill:#FFFFFF;enable-background:new    ;}
</style>
<linearGradient id="SVGID_1_" gradientUnits="userSpaceOnUse" x1="305.5765" y1="-211.0116" x2="305.5764" y2="1118.9883" gradientTransform="matrix(1 0 0 -1 0 775.78)">
	<stop  offset="0.1262" style="stop-color:#E3E3E3"/>
	<stop  offset="0.4394" style="stop-color:#E1E1E1"/>
	<stop  offset="0.5523" style="stop-color:#DADADA"/>
	<stop  offset="0.6327" style="stop-color:#CECECE"/>
	<stop  offset="0.6978" style="stop-color:#BEBEBE"/>
	<stop  offset="0.7535" style="stop-color:#A8A8A8"/>
	<stop  offset="0.8029" style="stop-color:#8C8C8C"/>
	<stop  offset="0.8475" style="stop-color:#6C6C6C"/>
	<stop  offset="0.8885" style="stop-color:#464646"/>
	<stop  offset="0.925" style="stop-color:#1D1D1D"/>
	<stop  offset="0.9473" style="stop-color:#000000"/>
</linearGradient>
<rect x="-461.9" class="st0" width="1534.9" height="773.7"/>
<radialGradient id="SVGID_2_" cx="313.5131" cy="356.6183" r="1243.9856" gradientTransform="matrix(1 0 0 -1 0 775.78)" gradientUnits="userSpaceOnUse">
	<stop  offset="2.420000e-02" style="stop-color:#FFFFFF"/>
	<stop  offset="1" style="stop-color:#FFFFFF;stop-opacity:0"/>
</radialGradient>
<polygon class="st1" points="308.3,416.2 253.1,-458.6 363.5,-458.6 "/>
<radialGradient id="SVGID_3_" cx="313.5131" cy="356.6183" r="1243.9872" gradientTransform="matrix(1 0 0 -1 0 775.78)" gradientUnits="userSpaceOnUse">
	<stop  offset="2.420000e-02" style="stop-color:#FFFFFF"/>
	<stop  offset="1" style="stop-color:#FFFFFF;stop-opacity:0"/>
</radialGradient>
<polygon class="st2" points="308.3,416.2 887.8,-241.4 965.9,-163.3 "/>
<radialGradient id="SVGID_4_" cx="313.5141" cy="356.6193" r="1243.9854" gradientTransform="matrix(1 0 0 -1 0 775.78)" gradientUnits="userSpaceOnUse">
	<stop  offset="2.420000e-02" style="stop-color:#FFFFFF"/>
	<stop  offset="1" style="stop-color:#FFFFFF;stop-opacity:0"/>
</radialGradient>
<polygon class="st3" points="308.3,416.2 1183,360.9 1183,471.4 "/>
<radialGradient id="SVGID_5_" cx="313.5131" cy="356.6193" r="1243.9878" gradientTransform="matrix(1 0 0 -1 0 775.78)" gradientUnits="userSpaceOnUse">
	<stop  offset="2.420000e-02" style="stop-color:#FFFFFF"/>
	<stop  offset="1" style="stop-color:#FFFFFF;stop-opacity:0"/>
</radialGradient>
<polygon class="st4" points="308.3,416.2 965.9,995.7 887.8,1073.8 "/>
<radialGradient id="SVGID_6_" cx="313.5141" cy="356.6193" r="1243.9871" gradientTransform="matrix(1 0 0 -1 0 775.78)" gradientUnits="userSpaceOnUse">
	<stop  offset="2.420000e-02" style="stop-color:#FFFFFF"/>
	<stop  offset="1" style="stop-color:#FFFFFF;stop-opacity:0"/>
</radialGradient>
<polygon class="st5" points="308.3,416.2 363.5,1290.9 253.1,1290.9 "/>
<radialGradient id="SVGID_7_" cx="313.5131" cy="356.6193" r="1243.9884" gradientTransform="matrix(1 0 0 -1 0 775.78)" gradientUnits="userSpaceOnUse">
	<stop  offset="2.420000e-02" style="stop-color:#FFFFFF"/>
	<stop  offset="1" style="stop-color:#FFFFFF;stop-opacity:0"/>
</radialGradient>
<polygon class="st6" points="308.3,416.2 -271.2,1073.8 -349.3,995.7 "/>
<radialGradient id="SVGID_8_" cx="313.5131" cy="356.6183" r="1243.9841" gradientTransform="matrix(1 0 0 -1 0 775.78)" gradientUnits="userSpaceOnUse">
	<stop  offset="2.420000e-02" style="stop-color:#FFFFFF"/>
	<stop  offset="1" style="stop-color:#FFFFFF;stop-opacity:0"/>
</radialGradient>
<polygon class="st7" points="308.3,416.2 -566.5,471.4 -566.5,360.9 "/>
<radialGradient id="SVGID_9_" cx="313.5131" cy="356.6183" r="1243.9916" gradientTransform="matrix(1 0 0 -1 0 775.78)" gradientUnits="userSpaceOnUse">
	<stop  offset="2.420000e-02" style="stop-color:#FFFFFF"/>
	<stop  offset="1" style="stop-color:#FFFFFF;stop-opacity:0"/>
</radialGradient>
<polygon class="st8" points="308.3,416.2 -349.3,-163.3 -271.2,-241.4 "/>
<radialGradient id="SVGID_10_" cx="485.1394" cy="442.4437" r="1243.3743" gradientTransform="matrix(0.9372 0.3488 0.3488 -0.9372 -296.8745 666.2522)" gradientUnits="userSpaceOnUse">
	<stop  offset="2.420000e-02" style="stop-color:#FFFFFF"/>
	<stop  offset="1" style="stop-color:#FFFFFF;stop-opacity:0"/>
</radialGradient>
<polygon class="st9" points="308.3,416.2 561.6,-422.9 665.1,-384.4 "/>
<radialGradient id="SVGID_11_" cx="485.1384" cy="442.4437" r="1243.9872" gradientTransform="matrix(0.9372 0.3488 0.3488 -0.9372 -296.8745 666.2522)" gradientUnits="userSpaceOnUse">
	<stop  offset="2.420000e-02" style="stop-color:#FFFFFF"/>
	<stop  offset="1" style="stop-color:#FFFFFF;stop-opacity:0"/>
</radialGradient>
<polygon class="st10" points="308.3,416.2 1080.8,2 1126.7,102.4 "/>
<radialGradient id="SVGID_12_" cx="485.1394" cy="442.4437" r="1243.9854" gradientTransform="matrix(0.9372 0.3488 0.3488 -0.9372 -296.8745 666.2522)" gradientUnits="userSpaceOnUse">
	<stop  offset="2.420000e-02" style="stop-color:#FFFFFF"/>
	<stop  offset="1" style="stop-color:#FFFFFF;stop-opacity:0"/>
</radialGradient>
<polygon class="st11" points="308.3,416.2 1147.4,669.5 1108.8,773 "/>
<radialGradient id="SVGID_13_" cx="485.1394" cy="442.4447" r="1243.9868" gradientTransform="matrix(0.9372 0.3488 0.3488 -0.9372 -296.8745 666.2522)" gradientUnits="userSpaceOnUse">
	<stop  offset="2.420000e-02" style="stop-color:#FFFFFF"/>
	<stop  offset="1" style="stop-color:#FFFFFF;stop-opacity:0"/>
</radialGradient>
<polygon class="st12" points="308.3,416.2 722.5,1188.6 622,1234.6 "/>
<radialGradient id="SVGID_14_" cx="485.1394" cy="442.4447" r="1243.9871" gradientTransform="matrix(0.9372 0.3488 0.3488 -0.9372 -296.8745 666.2522)" gradientUnits="userSpaceOnUse">
	<stop  offset="2.420000e-02" style="stop-color:#FFFFFF"/>
	<stop  offset="1" style="stop-color:#FFFFFF;stop-opacity:0"/>
</radialGradient>
<polygon class="st13" points="308.3,416.2 54.9,1255.2 -48.6,1216.7 "/>
<radialGradient id="SVGID_15_" cx="485.1394" cy="442.4447" r="1243.9884" gradientTransform="matrix(0.9372 0.3488 0.3488 -0.9372 -296.8745 666.2522)" gradientUnits="userSpaceOnUse">
	<stop  offset="2.420000e-02" style="stop-color:#FFFFFF"/>
	<stop  offset="1" style="stop-color:#FFFFFF;stop-opacity:0"/>
</radialGradient>
<polygon class="st14" points="308.3,416.2 -464.2,830.3 -510.1,729.9 "/>
<radialGradient id="SVGID_16_" cx="485.1384" cy="442.4437" r="1243.9612" gradientTransform="matrix(0.9372 0.3488 0.3488 -0.9372 -296.8745 666.2522)" gradientUnits="userSpaceOnUse">
	<stop  offset="2.420000e-02" style="stop-color:#FFFFFF"/>
	<stop  offset="1" style="stop-color:#FFFFFF;stop-opacity:0"/>
</radialGradient>
<polygon class="st15" points="308.3,416.2 -530.8,162.8 -492.3,59.3 "/>
<radialGradient id="SVGID_17_" cx="485.1394" cy="442.4447" r="1244.0662" gradientTransform="matrix(0.9372 0.3488 0.3488 -0.9372 -296.8745 666.2522)" gradientUnits="userSpaceOnUse">
	<stop  offset="2.420000e-02" style="stop-color:#FFFFFF"/>
	<stop  offset="1" style="stop-color:#FFFFFF;stop-opacity:0"/>
</radialGradient>
<polygon class="st16" points="308.3,416.2 -105.9,-356.3 -5.5,-402.3 "/>
<path class="st17" d="M140.3,442c0,20.9-19.9,37.8-19.9,37.8s-19.9-16.9-19.9-37.8s19.9-37.8,19.9-37.8S140.3,421.1,140.3,442z"/>
<path class="st17" d="M140.3,576.4c0,20.9-19.9,37.8-19.9,37.8s-19.9-16.9-19.9-37.8s19.9-37.8,19.9-37.8S140.3,555.6,140.3,576.4z"
	/>
<path class="st17" d="M140.3,710.9c0,20.9-19.9,37.8-19.9,37.8s-19.9-16.9-19.9-37.8c0-20.9,19.9-37.8,19.9-37.8
	S140.3,690,140.3,710.9z"/>
<path class="st17" d="M514.5,442c0,20.9-19.9,37.8-19.9,37.8s-19.9-16.9-19.9-37.8s19.9-37.8,19.9-37.8S514.5,421.1,514.5,442z"/>
<path class="st17" d="M514.5,576.4c0,20.9-19.9,37.8-19.9,37.8s-19.9-16.9-19.9-37.8s19.9-37.8,19.9-37.8S514.5,555.6,514.5,576.4z"
	/>
<path class="st17" d="M514.5,710.9c0,20.9-19.9,37.8-19.9,37.8s-19.9-16.9-19.9-37.8c0-20.9,19.9-37.8,19.9-37.8
	S514.5,690,514.5,710.9z"/>
<g>
	<g>
		<path class="st18" d="M507,803c0,24.9-20.1,45-45,45H153c-24.9,0-45-20.1-45-45v-459c0-24.9,20.1-45,45-45h309
			c24.9,0,45,20.1,45,45V803z"/>
	</g>
	<defs>
		<filter id="Adobe_OpacityMaskFilter" filterUnits="userSpaceOnUse" x="108" y="299.1" width="399" height="549">
			<feColorMatrix  type="matrix" values="1 0 0 0 0  0 1 0 0 0  0 0 1 0 0  0 0 0 1 0"/>
		</filter>
	</defs>
	<mask maskUnits="userSpaceOnUse" x="108" y="299.1" width="399" height="549" id="SVGID_18_">
		<g class="st19">
			
				<image style="overflow:visible;enable-background:new    ;" width="1683" height="2308" xlink:href="60DFC30805CF1F7C.jpeg"  transform="matrix(0.2396 0 0 0.2397 106.0424 297.0709)">
			</image>
		</g>
	</mask>
	<g class="st20">
		<path class="st21" d="M507,803c0,24.9-20.1,45-45,45H153c-24.9,0-45-20.1-45-45v-459c0-24.9,20.1-45,45-45h309
			c24.9,0,45,20.1,45,45V803z"/>
	</g>
</g>
<circle class="st22" cx="231.3" cy="658.8" r="6.9"/>
<circle class="st22" cx="256.5" cy="658.8" r="6.9"/>
<circle class="st22" cx="281.7" cy="658.8" r="6.9"/>
<circle class="st22" cx="306.9" cy="658.8" r="6.9"/>
<circle class="st22" cx="332.1" cy="658.8" r="6.9"/>
<circle class="st22" cx="357.3" cy="658.8" r="6.9"/>
<circle class="st22" cx="382.5" cy="658.8" r="6.9"/>
<circle class="st22" cx="244.4" cy="639.6" r="6.9"/>
<circle class="st22" cx="269.6" cy="639.6" r="6.9"/>
<circle class="st22" cx="294.8" cy="639.6" r="6.9"/>
<circle class="st22" cx="320" cy="639.6" r="6.9"/>
<circle class="st22" cx="345.2" cy="639.6" r="6.9"/>
<circle class="st22" cx="370.4" cy="639.6" r="6.9"/>
<circle class="st22" cx="282.7" cy="620.3" r="6.9"/>
<circle class="st22" cx="307.9" cy="620.3" r="6.9"/>
<circle class="st22" cx="333.1" cy="620.3" r="6.9"/>
<circle class="st22" cx="372.9" cy="774.4" r="6.9"/>
<circle class="st22" cx="347.7" cy="774.4" r="6.9"/>
<circle class="st22" cx="322.5" cy="774.4" r="6.9"/>
<circle class="st22" cx="297.3" cy="774.4" r="6.9"/>
<circle class="st22" cx="272.1" cy="774.4" r="6.9"/>
<circle class="st22" cx="247" cy="774.4" r="6.9"/>
<circle class="st22" cx="334.6" cy="793.7" r="6.9"/>
<circle class="st22" cx="309.4" cy="793.7" r="6.9"/>
<circle class="st22" cx="284.2" cy="793.7" r="6.9"/>
<circle class="st22" cx="217.4" cy="682.5" r="6.9"/>
<circle class="st22" cx="242.6" cy="682.5" r="6.9"/>
<circle class="st22" cx="267.8" cy="682.5" r="6.9"/>
<circle class="st22" cx="293" cy="682.5" r="6.9"/>
<circle class="st22" cx="318.2" cy="682.5" r="6.9"/>
<circle class="st22" cx="343.4" cy="682.5" r="6.9"/>
<circle class="st22" cx="368.6" cy="682.5" r="6.9"/>
<circle class="st22" cx="393.8" cy="682.5" r="6.9"/>
<circle class="st22" cx="228.7" cy="706.1" r="6.9"/>
<circle class="st22" cx="253.9" cy="706.1" r="6.9"/>
<circle class="st22" cx="279.1" cy="706.1" r="6.9"/>
<circle class="st22" cx="304.3" cy="706.1" r="6.9"/>
<circle class="st22" cx="329.5" cy="706.1" r="6.9"/>
<circle class="st22" cx="354.7" cy="706.1" r="6.9"/>
<circle class="st22" cx="379.9" cy="706.1" r="6.9"/>
<circle class="st22" cx="217.4" cy="729.8" r="6.9"/>
<circle class="st22" cx="242.6" cy="729.8" r="6.9"/>
<circle class="st22" cx="267.8" cy="729.8" r="6.9"/>
<circle class="st22" cx="293" cy="729.8" r="6.9"/>
<circle class="st22" cx="318.2" cy="729.8" r="6.9"/>
<circle class="st22" cx="343.4" cy="729.8" r="6.9"/>
<circle class="st22" cx="368.6" cy="729.8" r="6.9"/>
<circle class="st22" cx="393.8" cy="729.8" r="6.9"/>
<circle class="st22" cx="228.7" cy="753.5" r="6.9"/>
<circle class="st22" cx="253.9" cy="753.5" r="6.9"/>
<circle class="st22" cx="279.1" cy="753.5" r="6.9"/>
<circle class="st22" cx="304.3" cy="753.5" r="6.9"/>
<circle class="st22" cx="329.5" cy="753.5" r="6.9"/>
<circle class="st22" cx="354.7" cy="753.5" r="6.9"/>
<circle class="st22" cx="379.9" cy="753.5" r="6.9"/>
<circle class="st23" cx="307.5" cy="416.2" r="44.5"/>
<circle class="st24" cx="307.5" cy="416.2" r="40.2"/>
<rect x="7.9" y="774.4" class="st18" width="595.3" height="116.5"/>
<g>
	
		<image style="overflow:visible;opacity:0.35;enable-background:new    ;" width="1579" height="508" xlink:href="60DFC30805CF1F7C.png"  transform="matrix(0.2398 0 0 0.2395 123.2758 42.0338)">
	</image>
	<g>
		<g>
			<g>
				
					<linearGradient id="SVGID_19_" gradientUnits="userSpaceOnUse" x1="142.4098" y1="712.4484" x2="217.571" y2="528.6082" gradientTransform="matrix(1 0 0 -1 0 775.78)">
					<stop  offset="0" style="stop-color:#565656"/>
					<stop  offset="0.3273" style="stop-color:#FFFFFF"/>
					<stop  offset="1" style="stop-color:#000000"/>
				</linearGradient>
				<path class="st25" d="M164.2,110.6c-2.7,0-4.1-1.4-4.1-4.1V86.1H140v20.3c0,2.7-1.4,4.1-4.1,4.1s-4.1-1.4-4.1-4.1V57.6
					c0-2.7,1.4-4.1,4.1-4.1s4.1,1.4,4.1,4.1v20.3h20.2V57.6c0-2.7,1.4-4.1,4.1-4.1s4.1,1.4,4.1,4.1v48.8
					C168.3,109.2,167,110.6,164.2,110.6z"/>
				<path class="st26" d="M164.2,54c2.6,0,3.6,1.3,3.6,3.6v48.8c0,2.3-1,3.6-3.6,3.6s-3.6-1.3-3.6-3.6V85.6h-21.2v20.8
					c0,2.3-1,3.6-3.6,3.6s-3.6-1.3-3.6-3.6V57.6c0-2.3,1-3.6,3.6-3.6s3.6,1.3,3.6,3.6v20.8h21.2V57.6C160.6,55.3,161.7,54,164.2,54
					 M164.2,53c-3,0-4.6,1.6-4.6,4.6v19.8h-19.2V57.6c0-3-1.6-4.6-4.6-4.6c-3,0-4.6,1.6-4.6,4.6v48.8c0,3,1.6,4.6,4.6,4.6
					c3,0,4.6-1.6,4.6-4.6V86.6h19.2v19.8c0,3,1.6,4.6,4.6,4.6s4.6-1.6,4.6-4.6V57.6C168.8,54.6,167.3,53,164.2,53L164.2,53z"/>
			</g>
			<g>
				
					<linearGradient id="SVGID_20_" gradientUnits="userSpaceOnUse" x1="180.4683" y1="728.4642" x2="255.7507" y2="544.3276" gradientTransform="matrix(1 0 0 -1 0 775.78)">
					<stop  offset="0" style="stop-color:#565656"/>
					<stop  offset="0.3273" style="stop-color:#FFFFFF"/>
					<stop  offset="1" style="stop-color:#000000"/>
				</linearGradient>
				<path class="st27" d="M216.1,110.6c-2,0-3.6-1.4-4.4-4l-2.6-8.3h-14.6l-2.6,8.3c-0.7,2.5-2.3,3.9-4.4,3.9
					c-1.3,0-2.6-0.7-3.4-1.7c-0.6-0.8-0.8-1.7-0.6-2.5l14.1-48.7c0.6-2.1,1.6-4,4.2-4c2.8,0,3.7,2.2,4.2,4l13.9,48.7
					c0.2,0.8,0,1.7-0.6,2.5C218.7,109.9,217.4,110.6,216.1,110.6z M206.9,90.1l-5-17.4l-5,17.4H206.9z"/>
				<path class="st26" d="M201.9,54c2.4,0,3.2,1.8,3.7,3.7l13.9,48.7c0.5,1.7-1.4,3.6-3.5,3.6c-2.2,0-3.4-1.9-3.9-3.6l-2.7-8.6
					h-15.3l-2.7,8.6c-0.5,1.7-1.7,3.6-3.9,3.6c-2,0-4-1.9-3.5-3.6l14.1-48.7C198.8,55.8,199.6,54,201.9,54 M196.2,90.6h11.3
					L202,71.1h-0.1L196.2,90.6 M201.9,53c-3.3,0-4.2,3-4.6,4.4l-14.1,48.8c-0.3,1-0.1,2,0.6,3c0.9,1.2,2.4,1.9,3.8,1.9
					c2.3,0,4-1.6,4.8-4.3l2.5-7.9h13.9l2.4,7.9c0.8,2.7,2.6,4.3,4.8,4.3c1.4,0,2.9-0.8,3.8-1.9c0.7-0.9,0.9-2,0.6-3l-13.9-48.7
					C206.3,56.2,205.4,53,201.9,53L201.9,53z M197.5,89.6l4.4-15.1l4.3,15.1H197.5L197.5,89.6z"/>
			</g>
			<g>
				
					<linearGradient id="SVGID_21_" gradientUnits="userSpaceOnUse" x1="229.8991" y1="749.0983" x2="305.2277" y2="564.849" gradientTransform="matrix(1 0 0 -1 0 775.78)">
					<stop  offset="0" style="stop-color:#565656"/>
					<stop  offset="0.3273" style="stop-color:#FFFFFF"/>
					<stop  offset="1" style="stop-color:#000000"/>
				</linearGradient>
				<path class="st28" d="M267.9,110.6c-1.8,0-2.9-1.2-3.6-2.2l-19.7-28.2h-0.9v26.3c0,2.7-1.4,4.1-4.1,4.1s-4.1-1.4-4.1-4.1V53.5
					h24.7c5.8,0,11.9,4.1,11.9,10.9v5c0,7.4-6.2,10.7-11.9,10.7h-5.7l15.7,22.4c0.8,1.1,1.9,2.6,1.9,4.1
					C272,108.9,270.2,110.6,267.9,110.6z M259.1,72c2.4,0,4.7-0.3,4.7-2.5v-5c0-1.9-1.5-2.7-4.6-2.7h-15.6V72H259.1z"/>
				<path class="st26" d="M260.1,54c5.7,0,11.4,4,11.4,10.4v5c0,6.8-5.6,10.2-11.4,10.2h-6.6l16.2,23.2c0.8,1.1,1.8,2.4,1.8,3.8
					c0,2-1.7,3.4-3.7,3.4c-1.4,0-2.4-0.9-3.2-2l-19.9-28.4h-1.7v26.8c0,2.3-1,3.6-3.6,3.6s-3.6-1.3-3.6-3.6V54L260.1,54 M243.2,72.5
					h16c2,0,5.2-0.1,5.2-3v-5c0-2.9-3-3.2-5.1-3.2h-16.1L243.2,72.5 M260.1,53H236h-1v1v52.4c0,3,1.6,4.6,4.6,4.6
					c3,0,4.6-1.6,4.6-4.6V80.7h0.1l19.6,27.9c0.7,1,1.9,2.4,4,2.4c2.7,0,4.7-1.9,4.7-4.4c0-1.7-1.1-3.3-2-4.4l-15.1-21.6h4.7
					c6.2,0,12.4-3.9,12.4-11.2v-5C272.5,57.3,266.2,53,260.1,53L260.1,53z M244.2,62.2h15.1c4.1,0,4.1,1.6,4.1,2.2v5
					c0,1.5-1.2,2-4.2,2h-15L244.2,62.2L244.2,62.2z"/>
			</g>
			<g>
				
					<linearGradient id="SVGID_22_" gradientUnits="userSpaceOnUse" x1="281.7747" y1="770.7653" x2="357.2165" y2="586.2389" gradientTransform="matrix(1 0 0 -1 0 775.78)">
					<stop  offset="0" style="stop-color:#565656"/>
					<stop  offset="0.3273" style="stop-color:#FFFFFF"/>
					<stop  offset="1" style="stop-color:#000000"/>
				</linearGradient>
				<path class="st29" d="M305.6,110.6c-2.7,0-4.1-1.4-4.1-4.1V61.7h-6v2.1c0,2.7-1.4,4.1-4.1,4.1c-2.7,0-4.1-1.4-4.1-4.1V53.5h36.6
					v10.3c0,2.7-1.4,4.1-4.1,4.1s-4.1-1.4-4.1-4.1v-2.1h-6v44.7C309.7,109.2,308.3,110.6,305.6,110.6z"/>
				<path class="st26" d="M323.4,54v9.8c0,2.3-1,3.6-3.6,3.6s-3.6-1.3-3.6-3.6v-2.6h-7v45.2c0,2.3-1,3.6-3.6,3.6
					c-2.6,0-3.6-1.3-3.6-3.6V61.2h-7v2.6c0,2.3-1,3.6-3.6,3.6c-2.6,0-3.6-1.3-3.6-3.6V54L323.4,54 M324.4,53h-1h-35.6h-1v1v9.8
					c0,3,1.6,4.6,4.6,4.6c3,0,4.6-1.6,4.6-4.6v-1.6h5v44.2c0,3,1.6,4.6,4.6,4.6c3,0,4.6-1.6,4.6-4.6V62.2h5v1.6c0,3,1.6,4.6,4.6,4.6
					c3,0,4.6-1.6,4.6-4.6V54L324.4,53L324.4,53z"/>
			</g>
			<g>
				
					<linearGradient id="SVGID_23_" gradientUnits="userSpaceOnUse" x1="320.0077" y1="786.6938" x2="395.3292" y2="602.4615" gradientTransform="matrix(1 0 0 -1 0 775.78)">
					<stop  offset="0" style="stop-color:#565656"/>
					<stop  offset="0.3273" style="stop-color:#FFFFFF"/>
					<stop  offset="1" style="stop-color:#000000"/>
				</linearGradient>
				<path class="st30" d="M371.6,110.6c-2.7,0-4.1-1.4-4.1-4.1V65.4l-6,8.9v1c0,3.1-1.5,4.8-4.1,4.8c-2.5,0-4.1-1.8-4.1-4.8v-1
					l-6-8.9v41.1c0,2.7-1.4,4.1-4.1,4.1s-4.1-1.4-4.1-4.1V53.5h9.8l8.5,12.3l8.5-12.3h9.8v52.9C375.7,109.2,374.3,110.6,371.6,110.6
					z"/>
				<path class="st26" d="M375.2,54v52.4c0,2.3-1,3.6-3.6,3.6s-3.6-1.3-3.6-3.6V64h-0.1L361,74.1v1.2c0,2.2-0.9,4.3-3.6,4.3
					c-2.6,0-3.6-2.1-3.6-4.3v-1.2L347,64h-0.1v42.5c0,2.3-1,3.6-3.6,3.6s-3.6-1.3-3.6-3.6V54h9l8.8,12.7l8.8-12.7H375.2 M376.2,53
					h-1h-9h-0.5l-0.3,0.4l-8,11.5l-8-11.5l-0.3-0.4h-0.5h-9h-1v1v52.4c0,3,1.6,4.6,4.6,4.6c3,0,4.6-1.6,4.6-4.6V67l5,7.4v0.8
					c0,3.2,1.8,5.3,4.6,5.3c2.9,0,4.6-2,4.6-5.3v-0.8l5-7.4v39.4c0,3,1.6,4.6,4.6,4.6s4.6-1.6,4.6-4.6V54L376.2,53L376.2,53z"/>
			</g>
			<g>
				
					<linearGradient id="SVGID_24_" gradientUnits="userSpaceOnUse" x1="357.6138" y1="802.3576" x2="432.8962" y2="618.2209" gradientTransform="matrix(1 0 0 -1 0 775.78)">
					<stop  offset="0" style="stop-color:#565656"/>
					<stop  offset="0.3273" style="stop-color:#FFFFFF"/>
					<stop  offset="1" style="stop-color:#000000"/>
				</linearGradient>
				<path class="st31" d="M423.4,110.6c-2,0-3.6-1.4-4.4-4l-2.6-8.3h-14.6l-2.6,8.3c-0.7,2.5-2.3,3.9-4.4,3.9
					c-1.3,0-2.6-0.7-3.4-1.7c-0.6-0.8-0.8-1.7-0.6-2.5l14.1-48.7c0.6-2.1,1.6-4,4.2-4c2.8,0,3.7,2.2,4.2,4l13.9,48.7
					c0.2,0.8,0,1.7-0.6,2.5C426,109.9,424.7,110.6,423.4,110.6z M414.2,90.1l-5-17.4l-5,17.4H414.2z"/>
				<path class="st26" d="M409.3,54c2.4,0,3.2,1.8,3.7,3.7l13.9,48.7c0.5,1.7-1.4,3.6-3.5,3.6c-2.2,0-3.4-1.9-3.9-3.6l-2.7-8.6
					h-15.3l-2.7,8.6c-0.5,1.7-1.7,3.6-3.9,3.6c-2,0-4-1.9-3.5-3.6l14.1-48.7C406.2,55.8,407,54,409.3,54 M403.6,90.6h11.3l-5.5-19.5
					h-0.1L403.6,90.6 M409.3,53c-3.3,0-4.2,3-4.6,4.4l-14.1,48.8c-0.3,1-0.1,2,0.6,3c0.9,1.2,2.4,1.9,3.8,1.9c2.3,0,4-1.6,4.8-4.3
					l2.5-7.9h13.9l2.4,7.9c0.8,2.7,2.6,4.3,4.8,4.3c1.4,0,2.9-0.8,3.8-1.9c0.7-0.9,0.9-2,0.6-3L414,57.4
					C413.6,56.2,412.8,53,409.3,53L409.3,53z M404.9,89.6l4.4-15.1l4.3,15.1H404.9L404.9,89.6z"/>
			</g>
			<g>
				
					<linearGradient id="SVGID_25_" gradientUnits="userSpaceOnUse" x1="407.9973" y1="823.6611" x2="483.4733" y2="639.0509" gradientTransform="matrix(1 0 0 -1 0 775.78)">
					<stop  offset="0" style="stop-color:#565656"/>
					<stop  offset="0.3273" style="stop-color:#FFFFFF"/>
					<stop  offset="1" style="stop-color:#000000"/>
				</linearGradient>
				<path class="st32" d="M469.1,110.6L451,69v37.5c0,2.7-1.4,4.1-4.1,4.1s-4.1-1.4-4.1-4.1V53.5h10.3l18,42l0.1-37.8
					c0-2.7,1.4-4.1,4.1-4.1s4.1,1.4,4.1,4.1v52.9L469.1,110.6L469.1,110.6z"/>
				<path class="st26" d="M452.8,54l18.8,43.7h-0.1h0.1h0.1l0.1-40c0-2.3,1-3.6,3.6-3.6c2.6,0,3.6,1.3,3.6,3.6v52.4h-9.5l-18.8-43.2
					v-0.1h-0.1v39.6c0,2.3-1,3.6-3.6,3.6c-2.6,0-3.6-1.3-3.6-3.6V54L452.8,54 M453.5,53h-0.7h-9.5h-1v1v52.4c0,3,1.6,4.6,4.6,4.6
					c3,0,4.6-1.6,4.6-4.6V71.4l17,39.1l0.3,0.6h0.7h9.5h1v-1V57.7c0-3-1.6-4.6-4.6-4.6s-4.6,1.6-4.6,4.6l-0.1,35.4l-17-39.4
					L453.5,53L453.5,53z"/>
			</g>
			<g>
				
					<linearGradient id="SVGID_26_" gradientUnits="userSpaceOnUse" x1="178.8652" y1="731.0518" x2="255.8907" y2="542.6519" gradientTransform="matrix(1 0 0 -1 0 775.78)">
					<stop  offset="0" style="stop-color:#565656"/>
					<stop  offset="0.3273" style="stop-color:#FFFFFF"/>
					<stop  offset="1" style="stop-color:#000000"/>
				</linearGradient>
				<path class="st33" d="M209.3,144.2c-1.2,0-1.9-0.7-1.9-1.9s0.7-1.9,1.9-1.9h3.6v-15.2h-3.6c-1.2,0-1.9-0.7-1.9-1.9
					s0.7-1.9,1.9-1.9h11c1.2,0,1.9,0.7,1.9,1.9s-0.7,1.9-1.9,1.9h-3.6v15.2h3.6c1.2,0,1.9,0.7,1.9,1.9s-0.7,1.9-1.9,1.9H209.3z"/>
				<path class="st26" d="M220.4,121.9c0.7,0,1.4,0.4,1.4,1.4s-0.7,1.4-1.4,1.4h-4.1v16.2h4.1c0.7,0,1.4,0.4,1.4,1.4
					s-0.7,1.4-1.4,1.4h-11c-0.7,0-1.4-0.4-1.4-1.4s0.7-1.4,1.4-1.4h4.1v-16.2h-4.1c-0.7,0-1.4-0.4-1.4-1.4s0.7-1.4,1.4-1.4H220.4
					 M220.4,120.9h-11c-1.4,0-2.4,1-2.4,2.4s1,2.4,2.4,2.4h3.1v14.2h-3.1c-1.4,0-2.4,1-2.4,2.4s1,2.4,2.4,2.4h11
					c1.4,0,2.4-1,2.4-2.4s-1-2.4-2.4-2.4h-3.1v-14.2h3.1c1.4,0,2.4-1,2.4-2.4S221.8,120.9,220.4,120.9L220.4,120.9z"/>
			</g>
			<g>
				
					<linearGradient id="SVGID_27_" gradientUnits="userSpaceOnUse" x1="195.638" y1="739.3574" x2="273.4311" y2="549.08" gradientTransform="matrix(1 0 0 -1 0 775.78)">
					<stop  offset="0" style="stop-color:#565656"/>
					<stop  offset="0.3273" style="stop-color:#FFFFFF"/>
					<stop  offset="1" style="stop-color:#000000"/>
				</linearGradient>
				<path class="st34" d="M237.9,144.2l-6.5-15v13.1c0,1.2-0.7,1.9-1.9,1.9s-1.9-0.7-1.9-1.9v-20.9h4.5l6.5,15.1l0-13.2
					c0-1.2,0.7-1.9,1.9-1.9c1.2,0,1.9,0.7,1.9,1.9v20.9H237.9z"/>
				<path class="st26" d="M231.8,121.9l7.3,17h0h0h0l0-15.6c0-0.9,0.4-1.4,1.4-1.4s1.4,0.5,1.4,1.4v20.4h-3.7l-7.3-16.8v0h-0.1v15.4
					c0,0.9-0.4,1.4-1.4,1.4s-1.4-0.5-1.4-1.4v-20.4H231.8 M232.5,120.9h-0.7h-3.7h-1v1v20.4c0,1.5,0.9,2.4,2.4,2.4s2.4-0.9,2.4-2.4
					v-10.7l5.4,12.5l0.3,0.6h0.7h3.7h1v-1v-20.4c0-1.5-0.9-2.4-2.4-2.4c-1.5,0-2.4,0.9-2.4,2.4l0,10.8l-5.4-12.6L232.5,120.9
					L232.5,120.9z"/>
			</g>
			<g>
				
					<linearGradient id="SVGID_28_" gradientUnits="userSpaceOnUse" x1="213.084" y1="745.9315" x2="290.2479" y2="557.1932" gradientTransform="matrix(1 0 0 -1 0 775.78)">
					<stop  offset="0" style="stop-color:#565656"/>
					<stop  offset="0.3273" style="stop-color:#FFFFFF"/>
					<stop  offset="1" style="stop-color:#000000"/>
				</linearGradient>
				<path class="st35" d="M252.4,144.2c-0.9,0-2.1-0.1-3.1-1c-0.9-0.7-1.5-1.9-1.5-3c0-1.3,0.8-2.2,2-2.2c1,0,1.8,0.8,1.8,1.9
					c0,0.4,0,0.5,0.7,0.5l6.2,0c0,0,0.2,0,0.2,0c-0.1-0.1-0.1-0.1-0.1-0.2c-0.1-0.1-0.1-0.2-0.2-0.2l-9.6-12.3c-0.6-0.8-1-1.4-1-2.6
					c0-1.3,0.6-2.4,1.7-3.1c0.9-0.6,1.7-0.6,2.6-0.6h5.9c1.3,0,2.3,0.3,3.1,1c0.9,0.8,1.5,2,1.5,3c0,1.3-0.8,2.1-2,2.1
					c-1.1,0-1.8-0.7-1.8-1.8c0-0.5,0-0.6-0.8-0.6c0,0-6.3,0-6.3,0c0.1,0.1,0.2,0.3,0.3,0.4l9.6,12.3c0.6,0.7,1.1,1.5,1.1,2.6
					c0,2.2-1.6,3.7-4,3.7L252.4,144.2L252.4,144.2z"/>
				<path class="st26" d="M258,121.9c1.1,0,2,0.2,2.8,0.9c0.7,0.6,1.3,1.7,1.3,2.7c0,0.9-0.4,1.6-1.5,1.6c-0.8,0-1.3-0.5-1.3-1.3
					c0-1-0.5-1.1-1.3-1.1H252c-0.1,0-0.2,0-0.3,0c-0.3,0-0.7,0-0.7,0.4c0,0.3,0.3,0.6,0.4,0.8l9.6,12.3c0.6,0.7,1,1.4,1,2.3
					c0,2.1-1.6,3.2-3.5,3.2h-6.2c-1.1,0-2-0.2-2.8-0.9c-0.8-0.6-1.3-1.6-1.3-2.6c0-0.9,0.5-1.7,1.5-1.7c0.8,0,1.3,0.7,1.3,1.4
					c0,0.8,0.4,1,1.2,1h6.1c0.1,0,0.2,0,0.3,0c0.3,0,0.6,0,0.6-0.3c0-0.2-0.4-0.6-0.5-0.8l-9.6-12.3c-0.6-0.8-0.9-1.3-0.9-2.3
					c0-1.1,0.5-2.1,1.5-2.7c0.8-0.5,1.4-0.5,2.3-0.5H258 M258,120.9h-5.9c-0.9,0-1.8,0-2.9,0.7c-1.2,0.8-1.9,2.1-1.9,3.5
					c0,1.3,0.5,2.1,1.1,2.9l9.2,11.9h-5.3c-0.1,0-0.2,0-0.2,0c0-1.3-1-2.4-2.3-2.4c-1.4,0-2.5,1.1-2.5,2.7c0,1.2,0.6,2.5,1.7,3.4
					c1.2,1,2.5,1.1,3.5,1.1h6.2c2.7,0,4.5-1.7,4.5-4.2c0-1.3-0.6-2.2-1.2-2.9l-9.3-11.9h5.3c0.2,0,0.3,0,0.3,0c0,0,0,0,0,0.1
					c0,1.4,1,2.3,2.3,2.3c1.5,0,2.5-1.1,2.5-2.6c0-1.4-0.9-2.7-1.7-3.4C260.5,121.2,259.4,120.9,258,120.9L258,120.9z"/>
			</g>
			<g>
				
					<linearGradient id="SVGID_29_" gradientUnits="userSpaceOnUse" x1="232.5325" y1="755.1538" x2="310.2368" y2="565.093" gradientTransform="matrix(1 0 0 -1 0 775.78)">
					<stop  offset="0" style="stop-color:#565656"/>
					<stop  offset="0.3273" style="stop-color:#FFFFFF"/>
					<stop  offset="1" style="stop-color:#000000"/>
				</linearGradient>
				<path class="st36" d="M275.3,144.2c-1.2,0-1.9-0.7-1.9-1.9v-17.1h-1.7v0.5c0,1.2-0.7,1.9-1.9,1.9s-1.9-0.7-1.9-1.9v-4.3h14.8
					v4.3c0,1.2-0.7,1.9-1.9,1.9s-1.9-0.7-1.9-1.9v-0.5h-1.7v17.1C277.2,143.5,276.6,144.2,275.3,144.2z"/>
				<path class="st26" d="M282.3,121.9v3.8c0,0.9-0.4,1.4-1.4,1.4s-1.4-0.5-1.4-1.4v-1h-2.7v17.6c0,0.9-0.4,1.4-1.4,1.4
					c-1,0-1.4-0.5-1.4-1.4v-17.6h-2.7v1c0,0.9-0.4,1.4-1.4,1.4s-1.4-0.5-1.4-1.4v-3.8H282.3 M283.3,120.9h-1h-13.8h-1v1v3.8
					c0,1.5,0.9,2.4,2.4,2.4s2.4-0.9,2.4-2.4v0h0.7v16.6c0,1.5,0.9,2.4,2.4,2.4c1.5,0,2.4-0.9,2.4-2.4v-16.6h0.7v0
					c0,1.5,0.9,2.4,2.4,2.4s2.4-0.9,2.4-2.4v-3.8L283.3,120.9L283.3,120.9z"/>
			</g>
			<g>
				
					<linearGradient id="SVGID_30_" gradientUnits="userSpaceOnUse" x1="246.8148" y1="760.9468" x2="324.2313" y2="571.5903" gradientTransform="matrix(1 0 0 -1 0 775.78)">
					<stop  offset="0" style="stop-color:#565656"/>
					<stop  offset="0.3273" style="stop-color:#FFFFFF"/>
					<stop  offset="1" style="stop-color:#000000"/>
				</linearGradient>
				<path class="st37" d="M301,144.2c-0.9,0-1.3-0.6-1.6-1l-7.5-10.6v9.8c0,1.2-0.7,1.9-1.9,1.9c-1.2,0-1.9-0.7-1.9-1.9v-20.9h9.9
					c2.4,0,4.9,1.7,4.9,4.6v1.9c0,2.9-2.5,4.5-4.9,4.5h-1.6l5.8,8.2c0.3,0.5,0.8,1.1,0.8,1.8C302.9,143.4,302.1,144.2,301,144.2z
					 M297.6,128.5c1.3,0,1.5-0.3,1.5-0.7v-1.9c0-0.2,0-0.8-1.5-0.8h-5.7v3.4L297.6,128.5L297.6,128.5z"/>
				<path class="st26" d="M298,121.9c2.2,0,4.4,1.6,4.4,4.1v1.9c0,2.6-2.2,4-4.4,4h-2.6l6.3,9c0.3,0.4,0.7,1,0.7,1.5
					c0,0.8-0.6,1.3-1.4,1.3c-0.6,0-0.9-0.3-1.2-0.8l-7.7-11h-0.6v10.4c0,0.9-0.4,1.4-1.4,1.4s-1.4-0.5-1.4-1.4v-20.4L298,121.9
					 M291.4,129h6.2c0.8,0,2-0.1,2-1.2v-1.9c0-1.1-1.1-1.3-2-1.3h-6.2L291.4,129 M298,120.9h-9.4h-1v1v20.4c0,1.5,0.9,2.4,2.4,2.4
					c1.5,0,2.4-0.9,2.4-2.4v-8.2l6.6,9.4c0.2,0.3,0.8,1.2,2.1,1.2c1.4,0,2.4-1,2.4-2.3c0-0.9-0.5-1.6-0.9-2.1l-5.2-7.4h0.7
					c2.7,0,5.4-1.7,5.4-5v-1.9C303.4,122.8,300.7,120.9,298,120.9L298,120.9z M292.4,125.7h5.2c0.8,0,1,0.2,1,0.2c0,0,0,0,0,0.1v1.9
					c0,0,0,0.1,0,0.1c0,0-0.2,0.1-1,0.1h-5.2L292.4,125.7L292.4,125.7z"/>
			</g>
			<g>
				
					<linearGradient id="SVGID_31_" gradientUnits="userSpaceOnUse" x1="265.005" y1="768.1079" x2="342.1242" y2="579.4786" gradientTransform="matrix(1 0 0 -1 0 775.78)">
					<stop  offset="0" style="stop-color:#565656"/>
					<stop  offset="0.3273" style="stop-color:#FFFFFF"/>
					<stop  offset="1" style="stop-color:#000000"/>
				</linearGradient>
				<path class="st38" d="M313.3,144.2c-1.7,0-2.8-0.5-3.8-1.6c-1.1-1.2-1.2-2.5-1.2-3.7v-15.6c0-1.2,0.7-1.9,1.9-1.9
					s1.9,0.7,1.9,1.9v15.6c0,1.3,0.3,1.5,1.2,1.5h4.8c0.9,0,1.2-0.1,1.2-1.5v-15.6c0-1.2,0.7-1.9,1.9-1.9c1.2,0,1.9,0.7,1.9,1.9
					v15.6c0,1.2-0.1,2.4-1.2,3.7c-1,1.1-2.2,1.6-3.8,1.6L313.3,144.2L313.3,144.2z"/>
				<path class="st26" d="M321.2,121.9c1,0,1.4,0.5,1.4,1.4v15.6c0,1.3-0.1,2.3-1.1,3.3c-1,1.1-2.1,1.4-3.5,1.4h-4.8
					c-1.4,0-2.5-0.3-3.5-1.4c-0.9-1-1.1-2-1.1-3.3v-15.6c0-0.9,0.4-1.4,1.4-1.4s1.4,0.5,1.4,1.4v15.6c0,1.6,0.5,2,1.7,2h4.8
					c1.3,0,1.7-0.4,1.7-2v-15.6C319.8,122.4,320.2,121.9,321.2,121.9 M321.2,120.9c-1.5,0-2.4,0.9-2.4,2.4v15.6
					c0,0.7-0.1,0.9-0.1,0.9c0,0-0.1,0.1-0.6,0.1h-4.8c-0.5,0-0.6-0.1-0.6-0.1l0,0c0,0-0.1-0.2-0.1-0.9v-15.6c0-1.5-0.9-2.4-2.4-2.4
					s-2.4,0.9-2.4,2.4v15.6c0,1.3,0.1,2.6,1.3,4c1.1,1.2,2.4,1.8,4.2,1.8h4.8c1.8,0,3.1-0.5,4.2-1.8c1.2-1.4,1.3-2.7,1.3-4v-15.6
					C323.6,121.8,322.7,120.9,321.2,120.9L321.2,120.9z"/>
			</g>
			<g>
				
					<linearGradient id="SVGID_32_" gradientUnits="userSpaceOnUse" x1="283.0993" y1="776.2571" x2="360.3846" y2="587.2218" gradientTransform="matrix(1 0 0 -1 0 775.78)">
					<stop  offset="0" style="stop-color:#565656"/>
					<stop  offset="0.3273" style="stop-color:#FFFFFF"/>
					<stop  offset="1" style="stop-color:#000000"/>
				</linearGradient>
				<path class="st39" d="M336.4,144.2c-2.2,0-3.6-0.9-4.6-2.9l-2.6-5.2c-0.6-1.1-0.8-2.1-0.8-3.2c0-1.4,0.3-2.2,0.8-3.3l2.6-5.2
					c1-2.1,2.4-3,4.8-3h4.8c0.9,0,1.9,0.6,1.9,1.9c0,1.3-1,1.9-1.9,1.9h-4.7c-1,0-1,0-1.5,0.9l-2.4,4.9c-0.4,0.7-0.5,1.1-0.5,1.9
					c0,0.6,0.2,1,0.5,1.6l2.4,4.9c0.5,1,0.6,1,1.7,1h4.6c0.9,0,1.9,0.6,1.9,1.9c0,1.3-1,1.9-1.9,1.9L336.4,144.2L336.4,144.2z"/>
				<path class="st26" d="M341.3,121.9c0.6,0,1.4,0.3,1.4,1.4c0,1-0.8,1.4-1.4,1.4h-4.7c-1.2,0-1.4,0.1-1.9,1.2l-2.4,4.9
					c-0.4,0.8-0.6,1.3-0.6,2.1c0,0.8,0.3,1.3,0.6,1.9l2.4,4.8c0.6,1.1,0.8,1.2,2.1,1.2h4.6c0.6,0,1.4,0.3,1.4,1.4
					c0,1-0.8,1.4-1.4,1.4h-4.9c-2.1,0-3.3-0.8-4.2-2.7l-2.6-5.2c-0.5-1-0.8-1.8-0.8-2.9c0-1.2,0.2-2,0.8-3.1l2.6-5.2
					c1-1.9,2.2-2.7,4.3-2.7L341.3,121.9 M341.3,120.9h-4.8c-2.5,0-4.1,1-5.2,3.2l-2.6,5.2c-0.6,1.2-0.9,2.1-0.9,3.6
					c0,1.2,0.3,2.2,0.9,3.4l2.6,5.2c1.1,2.2,2.7,3.2,5.1,3.2h4.9c1.2,0,2.4-0.8,2.4-2.4c0-1.6-1.2-2.4-2.4-2.4h-4.6
					c-0.9,0-0.9,0-1.2-0.7l-2.4-4.8l0-0.1c-0.3-0.6-0.4-0.9-0.4-1.4c0-0.7,0.2-1,0.5-1.7l2.4-4.9c0.2-0.4,0.3-0.5,0.3-0.6
					c0,0,0.2,0,0.7,0h4.7c1.2,0,2.4-0.8,2.4-2.4C343.7,121.6,342.5,120.9,341.3,120.9L341.3,120.9z"/>
			</g>
			<g>
				
					<linearGradient id="SVGID_33_" gradientUnits="userSpaceOnUse" x1="301.0401" y1="784.8265" x2="378.7509" y2="594.75" gradientTransform="matrix(1 0 0 -1 0 775.78)">
					<stop  offset="0" style="stop-color:#565656"/>
					<stop  offset="0.3273" style="stop-color:#FFFFFF"/>
					<stop  offset="1" style="stop-color:#000000"/>
				</linearGradient>
				<path class="st40" d="M356,144.2c-1.2,0-1.9-0.7-1.9-1.9v-17.1h-1.7v0.5c0,1.2-0.7,1.9-1.9,1.9s-1.9-0.7-1.9-1.9v-4.3h14.8v4.3
					c0,1.2-0.7,1.9-1.9,1.9s-1.9-0.7-1.9-1.9v-0.5h-1.7v17.1C357.9,143.5,357.2,144.2,356,144.2z"/>
				<path class="st26" d="M362.9,121.9v3.8c0,0.9-0.4,1.4-1.4,1.4s-1.4-0.5-1.4-1.4v-1h-2.7v17.6c0,0.9-0.4,1.4-1.4,1.4
					c-1,0-1.4-0.5-1.4-1.4v-17.6h-2.7v1c0,0.9-0.4,1.4-1.4,1.4s-1.4-0.5-1.4-1.4v-3.8H362.9 M363.9,120.9h-1h-13.8h-1v1v3.8
					c0,1.5,0.9,2.4,2.4,2.4s2.4-0.9,2.4-2.4v0h0.7v16.6c0,1.5,0.9,2.4,2.4,2.4c1.5,0,2.4-0.9,2.4-2.4v-16.6h0.7v0
					c0,1.5,0.9,2.4,2.4,2.4s2.4-0.9,2.4-2.4v-3.8L363.9,120.9L363.9,120.9z"/>
			</g>
			<g>
				
					<linearGradient id="SVGID_34_" gradientUnits="userSpaceOnUse" x1="315.6967" y1="790.8585" x2="393.2476" y2="601.1736" gradientTransform="matrix(1 0 0 -1 0 775.78)">
					<stop  offset="0" style="stop-color:#565656"/>
					<stop  offset="0.3273" style="stop-color:#FFFFFF"/>
					<stop  offset="1" style="stop-color:#000000"/>
				</linearGradient>
				<path class="st41" d="M376.1,144.2c-1.7,0-3-0.9-3.9-2.6l-2.6-5.2c-0.6-1.2-1-2.1-1-3.6c0-1.3,0.2-2.2,0.8-3.3l2.8-5.6
					c0.8-1.6,2.2-2.6,3.8-2.6s3,0.9,3.8,2.6l2.8,5.6c0.6,1.2,0.8,2.1,0.8,3.3c0,1.4-0.4,2.3-1,3.6l-2.6,5.2
					C379.2,143.2,377.8,144.2,376.1,144.2z M376.1,125.2c-0.2,0-0.2,0-0.4,0.5l-2.6,5.2c-0.4,0.8-0.6,1.2-0.6,2
					c0,0.7,0.2,1.1,0.4,1.6l2.7,5.3c0.2,0.5,0.3,0.6,0.5,0.6c0.2,0,0.3-0.1,0.5-0.5l2.7-5.4c0.3-0.5,0.4-1,0.4-1.6
					c0-0.8-0.2-1.3-0.6-2l-2.6-5.2C376.4,125.2,376.3,125.2,376.1,125.2z"/>
				<path class="st26" d="M376.1,121.9c1.6,0,2.7,1,3.4,2.3l2.8,5.6c0.5,1.1,0.7,1.9,0.7,3.1c0,1.3-0.4,2.2-0.9,3.3l-2.6,5.2
					c-0.7,1.3-1.8,2.3-3.4,2.3s-2.7-1-3.4-2.3l-2.6-5.2c-0.6-1.1-0.9-2-0.9-3.3c0-1.2,0.2-2,0.7-3.1l2.8-5.6
					C373.4,122.9,374.6,121.9,376.1,121.9 M376.1,140.9c0.6,0,0.8-0.4,1-0.8l2.7-5.3c0.3-0.6,0.5-1.1,0.5-1.8c0-0.9-0.2-1.5-0.6-2.3
					l-2.5-5.1c-0.2-0.4-0.4-0.8-1-0.8s-0.7,0.4-1,0.8l-2.5,5.1c-0.4,0.8-0.6,1.3-0.6,2.3c0,0.7,0.2,1.2,0.5,1.8l2.7,5.3
					C375.4,140.4,375.6,140.9,376.1,140.9 M376.1,120.9c-1.8,0-3.4,1-4.3,2.8l-2.8,5.6c-0.6,1.3-0.8,2.2-0.8,3.6
					c0,1.5,0.4,2.5,1,3.8l2.6,5.2c0.9,1.9,2.5,2.9,4.3,2.9c1.9,0,3.4-1,4.3-2.9l2.6-5.2c0.6-1.2,1-2.2,1-3.8c0-1.3-0.2-2.3-0.8-3.5
					l-2.8-5.6C379.5,121.9,377.9,120.9,376.1,120.9L376.1,120.9z M376.1,139.7C376.1,139.7,376.1,139.6,376.1,139.7l-0.1-0.1
					l-2.7-5.3c-0.3-0.6-0.4-0.9-0.4-1.4c0-0.7,0.2-1.1,0.5-1.8l2.5-5.1l0.1-0.1l0,0l0,0l0.1,0.1l2.5,5.1c0.4,0.7,0.5,1.1,0.5,1.8
					c0,0.5-0.1,0.8-0.4,1.4l-2.7,5.3L376.1,139.7C376.2,139.6,376.1,139.7,376.1,139.7L376.1,139.7z"/>
			</g>
			<g>
				
					<linearGradient id="SVGID_35_" gradientUnits="userSpaceOnUse" x1="332.5061" y1="797.8975" x2="409.9284" y2="608.5264" gradientTransform="matrix(1 0 0 -1 0 775.78)">
					<stop  offset="0" style="stop-color:#565656"/>
					<stop  offset="0.3273" style="stop-color:#FFFFFF"/>
					<stop  offset="1" style="stop-color:#000000"/>
				</linearGradient>
				<path class="st42" d="M401.8,144.2c-0.9,0-1.3-0.6-1.6-1l-7.5-10.6v9.8c0,1.2-0.7,1.9-1.9,1.9s-1.9-0.7-1.9-1.9v-20.9h9.9
					c2.4,0,4.9,1.7,4.9,4.6v1.9c0,2.9-2.5,4.5-4.9,4.5h-1.6l5.8,8.2c0.3,0.5,0.8,1.1,0.8,1.8C403.7,143.4,402.9,144.2,401.8,144.2z
					 M398.4,128.5c1.3,0,1.5-0.3,1.5-0.7v-1.9c0-0.2,0-0.8-1.5-0.8h-5.7v3.4L398.4,128.5L398.4,128.5z"/>
				<path class="st26" d="M398.8,121.9c2.2,0,4.4,1.6,4.4,4.1v1.9c0,2.6-2.2,4-4.4,4h-2.6l6.3,9c0.3,0.4,0.7,1,0.7,1.5
					c0,0.8-0.6,1.3-1.4,1.3c-0.6,0-0.9-0.3-1.2-0.8l-7.7-11h-0.6v10.4c0,0.9-0.4,1.4-1.4,1.4s-1.4-0.5-1.4-1.4v-20.4L398.8,121.9
					 M392.2,129h6.2c0.8,0,2-0.1,2-1.2v-1.9c0-1.1-1.1-1.3-2-1.3h-6.2L392.2,129 M398.8,120.9h-9.4h-1v1v20.4c0,1.5,0.9,2.4,2.4,2.4
					s2.4-0.9,2.4-2.4v-8.2l6.6,9.4c0.2,0.3,0.8,1.2,2.1,1.2c1.4,0,2.4-1,2.4-2.3c0-0.9-0.5-1.6-0.9-2.1l-5.2-7.4h0.7
					c2.7,0,5.4-1.7,5.4-5v-1.9C404.2,122.8,401.5,120.9,398.8,120.9L398.8,120.9z M393.2,125.7h5.2c0.8,0,1,0.2,1,0.2c0,0,0,0,0,0.1
					v1.9c0,0,0,0.1,0,0.1c0,0-0.2,0.1-1,0.1h-5.2L393.2,125.7L393.2,125.7z"/>
			</g>
		</g>
	</g>
</g>
<circle class="st43" cx="372.9" cy="359.6" r="7.7"/>
<line class="st44" x1="307.5" y1="376" x2="307.5" y2="456.3"/>
<line class="st44" x1="347.7" y1="416.2" x2="267.4" y2="416.2"/>
<line class="st44" x1="335.9" y1="387.8" x2="279.1" y2="444.6"/>
<line class="st44" x1="335.9" y1="444.6" x2="279.1" y2="387.8"/>
<circle class="st45" cx="321.8" cy="403.7" r="20.9"/>
<path d="M48.4,214.6h3.7v21.3c0,0.9-0.4,1.5-1.5,1.5c-1.1,0-1.5-0.5-1.5-1.5v-17.3h-0.1l-2.8,4.1v0.5c0,0.9-0.3,1.8-1.5,1.8
	c-1.1,0-1.5-0.8-1.5-1.8v-0.5l-2.8-4.1h-0.1v17.3c0,0.9-0.4,1.5-1.5,1.5s-1.5-0.5-1.5-1.5v-21.3h3.7l3.6,5.2L48.4,214.6z"/>
<path d="M64.4,216c0.2-0.8,0.6-1.5,1.5-1.5c1,0,1.3,0.7,1.5,1.5l5.7,19.8c0.2,0.7-0.6,1.5-1.4,1.5c-0.9,0-1.4-0.8-1.6-1.5l-1.1-3.5
	h-6.2l-1.1,3.5c-0.2,0.7-0.7,1.5-1.6,1.5c-0.8,0-1.6-0.8-1.4-1.5L64.4,216z M65.9,221.5L65.9,221.5l-2.3,7.9h4.6L65.9,221.5z"/>
<path d="M82.6,217.5h-1.1c-1,0-1.8-0.4-1.8-1.5c0-1.1,0.8-1.5,1.7-1.5h4.9c2.3,0,3.4,0.9,4.4,2.9l2.6,5.2c0.6,1.2,0.9,2,0.9,3.4
	c0,1.2-0.3,2.2-0.8,3.2l-2.7,5.3c-1,2.1-2.3,2.8-4.6,2.8h-4.9c-0.8,0-1.5-0.4-1.5-1.5c0-1.1,0.7-1.5,1.5-1.5h1.4V217.5z M85.5,234.4
	h0.6c1.2,0,1.5-0.1,2-1.2l2.6-5.2c0.3-0.7,0.6-1.2,0.6-1.9c0-1-0.3-1.6-0.7-2.4l-2.4-4.9c-0.6-1.3-0.9-1.2-2.2-1.2h-0.4L85.5,234.4
	L85.5,234.4z"/>
<path d="M113.8,234.4c0.8,0,1.5,0.4,1.5,1.5c0,1.1-0.7,1.5-1.5,1.5h-13v-22.8h13c0.8,0,1.5,0.4,1.5,1.5s-0.7,1.5-1.5,1.5h-10.1v7
	h4.3c0.8,0,1.5,0.4,1.5,1.5s-0.7,1.5-1.5,1.5h-4.3v7L113.8,234.4L113.8,234.4z"/>
<path d="M143,214.6h13c0.8,0,1.5,0.4,1.5,1.5s-0.7,1.5-1.5,1.5h-10.1v4.5h7.2c0.8,0,1.5,0.4,1.5,1.5s-0.7,1.5-1.5,1.5h-7.2v11
	c0,0.9-0.4,1.5-1.5,1.5c-1.1,0-1.5-0.5-1.5-1.5L143,214.6L143,214.6z"/>
<path d="M177.8,222.8c0.6,1.1,0.8,2,0.8,3.2c0,1.4-0.4,2.3-1,3.5l-2.7,5.4c-0.7,1.4-1.9,2.4-3.6,2.4s-2.9-1-3.6-2.4l-2.7-5.4
	c-0.6-1.2-1-2.1-1-3.5c0-1.3,0.2-2.1,0.8-3.2l2.9-5.8c0.7-1.4,1.9-2.4,3.5-2.4c1.6,0,2.8,1,3.5,2.4L177.8,222.8z M172.3,218.4
	c-0.2-0.5-0.4-0.9-1-0.9c-0.6,0-0.8,0.4-1,0.9l-2.6,5.3c-0.4,0.8-0.7,1.4-0.7,2.4c0,0.8,0.2,1.3,0.5,1.9l2.8,5.6
	c0.2,0.4,0.4,0.9,1,0.9c0.6,0,0.8-0.5,1-0.9l2.8-5.6c0.3-0.6,0.5-1.2,0.5-1.9c0-1-0.2-1.5-0.7-2.4L172.3,218.4z"/>
<path d="M188.1,235.9c0,0.9-0.4,1.5-1.5,1.5c-1.1,0-1.5-0.5-1.5-1.5v-21.3h9.8c2.3,0,4.6,1.6,4.6,4.2v2c0,2.8-2.3,4.2-4.6,4.2h-2.7
	l6.6,9.4c0.3,0.4,0.7,1,0.7,1.6c0,0.8-0.7,1.4-1.5,1.4c-0.6,0-1-0.4-1.3-0.8l-8.1-11.5h-0.7V235.9z M188.1,222h6.5
	c0.8,0,2.1-0.1,2.1-1.2v-2c0-1.2-1.2-1.3-2.1-1.3h-6.5V222z"/>
<path d="M236,235.9c0,0.9-0.4,1.5-1.5,1.5c-1.1,0-1.5-0.5-1.5-1.5v-9.4l-5.8-7.5v-3c0-0.9,0.4-1.5,1.5-1.5c1.1,0,1.5,0.5,1.5,1.5v2
	l4.3,5.6l4.3-5.6v-2c0-0.9,0.4-1.5,1.5-1.5c1.1,0,1.5,0.5,1.5,1.5v3l-5.8,7.5L236,235.9L236,235.9z"/>
<path d="M262.1,222.8c0.6,1.1,0.8,2,0.8,3.2c0,1.4-0.4,2.3-1,3.5l-2.7,5.4c-0.7,1.4-1.9,2.4-3.6,2.4s-2.9-1-3.6-2.4l-2.7-5.4
	c-0.6-1.2-1-2.1-1-3.5c0-1.3,0.2-2.1,0.8-3.2l2.9-5.8c0.7-1.4,1.9-2.4,3.5-2.4c1.6,0,2.8,1,3.5,2.4L262.1,222.8z M256.6,218.4
	c-0.2-0.5-0.4-0.9-1-0.9c-0.6,0-0.8,0.4-1,0.9l-2.6,5.3c-0.4,0.8-0.7,1.4-0.7,2.4c0,0.8,0.2,1.3,0.5,1.9l2.8,5.6
	c0.2,0.4,0.4,0.9,1,0.9c0.6,0,0.8-0.5,1-0.9l2.8-5.6c0.3-0.6,0.5-1.2,0.5-1.9c0-1-0.2-1.5-0.7-2.4L256.6,218.4z"/>
<path d="M274.2,237.3c-1.5,0-2.6-0.4-3.6-1.5c-1-1.1-1.1-2.1-1.1-3.5V216c0-0.9,0.4-1.5,1.5-1.5c1.1,0,1.5,0.5,1.5,1.5v16.3
	c0,1.6,0.5,2,1.8,2h5c1.3,0,1.8-0.4,1.8-2V216c0-0.9,0.4-1.5,1.5-1.5c1.1,0,1.5,0.5,1.5,1.5v16.3c0,1.3-0.1,2.4-1.1,3.5
	c-1,1.1-2.2,1.5-3.6,1.5H274.2z"/>
<path d="M293.4,235.9c0,0.9-0.4,1.5-1.5,1.5s-1.5-0.5-1.5-1.5v-21.3h9.8c2.3,0,4.6,1.6,4.6,4.2v2c0,2.8-2.3,4.2-4.6,4.2h-2.7
	l6.6,9.4c0.3,0.4,0.7,1,0.7,1.6c0,0.8-0.7,1.4-1.5,1.4c-0.6,0-1-0.4-1.3-0.8l-8.1-11.5h-0.7L293.4,235.9L293.4,235.9z M293.4,222
	h6.5c0.8,0,2.1-0.1,2.1-1.2v-2c0-1.2-1.2-1.3-2.1-1.3h-6.5L293.4,222L293.4,222z"/>
<path d="M335.6,235.9c0,0.9-0.4,1.5-1.5,1.5s-1.5-0.5-1.5-1.5v-21.3h9.7c1.3,0,2.3,0.2,3.4,1.2c1.3,1.2,1.4,2.3,1.4,3.8v4
	c0,1.5-0.1,2.5-1.2,3.7c-1.1,1.3-2.3,1.4-3.9,1.4h-6.4L335.6,235.9L335.6,235.9z M335.6,225.8h6.5c1.7,0,2.1-0.4,2.1-2.1v-4.1
	c0-1.7-0.4-2.1-2.1-2.1h-6.5V225.8z"/>
<path d="M356.7,235.9c0,0.9-0.4,1.5-1.5,1.5c-1.1,0-1.5-0.5-1.5-1.5v-21.3h9.8c2.3,0,4.6,1.6,4.6,4.2v2c0,2.8-2.3,4.2-4.6,4.2h-2.7
	l6.6,9.4c0.3,0.4,0.7,1,0.7,1.6c0,0.8-0.7,1.4-1.5,1.4c-0.6,0-1-0.4-1.3-0.8l-8.1-11.5h-0.7V235.9z M356.7,222h6.5
	c0.8,0,2.1-0.1,2.1-1.2v-2c0-1.2-1.2-1.3-2.1-1.3h-6.5V222z"/>
<path d="M388.5,222.8c0.6,1.1,0.8,2,0.8,3.2c0,1.4-0.4,2.3-1,3.5l-2.7,5.4c-0.7,1.4-1.9,2.4-3.6,2.4s-2.9-1-3.6-2.4l-2.7-5.4
	c-0.6-1.2-1-2.1-1-3.5c0-1.3,0.2-2.1,0.8-3.2l2.9-5.8c0.7-1.4,1.9-2.4,3.5-2.4c1.6,0,2.8,1,3.5,2.4L388.5,222.8z M383.1,218.4
	c-0.2-0.5-0.4-0.9-1-0.9c-0.6,0-0.8,0.4-1,0.9l-2.6,5.3c-0.4,0.8-0.7,1.4-0.7,2.4c0,0.8,0.2,1.3,0.5,1.9l2.8,5.6
	c0.2,0.4,0.4,0.9,1,0.9s0.8-0.5,1-0.9l2.8-5.6c0.3-0.6,0.5-1.2,0.5-1.9c0-1-0.2-1.5-0.7-2.4L383.1,218.4z"/>
<path d="M398.8,217.5h-1.1c-1,0-1.8-0.4-1.8-1.5c0-1.1,0.8-1.5,1.7-1.5h4.9c2.3,0,3.4,0.9,4.4,2.9l2.6,5.2c0.6,1.2,0.9,2,0.9,3.4
	c0,1.2-0.3,2.2-0.8,3.2l-2.7,5.3c-1,2.1-2.3,2.8-4.6,2.8h-4.9c-0.8,0-1.5-0.4-1.5-1.5c0-1.1,0.7-1.5,1.5-1.5h1.4L398.8,217.5
	L398.8,217.5z M401.7,234.4h0.6c1.2,0,1.5-0.1,2-1.2l2.6-5.2c0.3-0.7,0.6-1.2,0.6-1.9c0-1-0.3-1.6-0.7-2.4l-2.4-4.9
	c-0.6-1.3-0.9-1.2-2.2-1.2h-0.4V234.4z"/>
<path d="M421.7,237.3c-1.5,0-2.6-0.4-3.6-1.5c-1-1.1-1.1-2.1-1.1-3.5V216c0-0.9,0.4-1.5,1.5-1.5s1.5,0.5,1.5,1.5v16.3
	c0,1.6,0.5,2,1.8,2h5c1.3,0,1.8-0.4,1.8-2V216c0-0.9,0.4-1.5,1.5-1.5c1.1,0,1.5,0.5,1.5,1.5v16.3c0,1.3-0.1,2.4-1.1,3.5
	c-1,1.1-2.2,1.5-3.6,1.5H421.7z"/>
<path d="M445.9,237.3c-2.2,0-3.5-0.9-4.4-2.8l-2.7-5.4c-0.5-1-0.8-1.9-0.8-3.1c0-1.3,0.2-2.1,0.8-3.2l2.7-5.4c1-2,2.3-2.8,4.5-2.8h5
	c0.6,0,1.5,0.4,1.5,1.5c0,1.1-0.8,1.5-1.5,1.5h-4.9c-1.3,0-1.5,0.1-2,1.2l-2.5,5.1c-0.4,0.8-0.6,1.3-0.6,2.2c0,0.8,0.3,1.3,0.6,2
	l2.5,5.1c0.6,1.2,0.9,1.3,2.2,1.3h4.8c0.6,0,1.5,0.4,1.5,1.5c0,1.1-0.8,1.5-1.5,1.5L445.9,237.3L445.9,237.3z"/>
<path d="M462.1,217.5v1.1c0,0.9-0.4,1.5-1.5,1.5s-1.5-0.5-1.5-1.5v-4h14.5v4c0,0.9-0.4,1.5-1.5,1.5c-1.1,0-1.5-0.5-1.5-1.5v-1.1
	h-2.8v18.4c0,0.9-0.4,1.5-1.5,1.5c-1.1,0-1.5-0.5-1.5-1.5v-18.4H462.1z"/>
<path d="M488.9,234.4h4.3c0.8,0,1.5,0.4,1.5,1.5c0,1.1-0.7,1.5-1.5,1.5h-11.5c-0.8,0-1.5-0.4-1.5-1.5c0-1.1,0.7-1.5,1.5-1.5h4.3
	v-16.9h-4.3c-0.8,0-1.5-0.4-1.5-1.5s0.7-1.5,1.5-1.5h11.5c0.8,0,1.5,0.4,1.5,1.5s-0.7,1.5-1.5,1.5h-4.3V234.4z"/>
<path d="M512.8,220.7V216c0-0.9,0.4-1.5,1.5-1.5c1.1,0,1.5,0.5,1.5,1.5v4.6c0,0.4,0,0.8-0.2,1.1L510,236c-0.3,0.7-0.6,1.3-1.5,1.3
	c-0.9,0-1.2-0.6-1.5-1.3l-5.6-14.3c-0.1-0.4-0.2-0.8-0.2-1.1V216c0-0.9,0.4-1.5,1.5-1.5c1.1,0,1.5,0.5,1.5,1.5v4.7l4.3,11.2
	L512.8,220.7z"/>
<path d="M531.1,234.4h4.3c0.8,0,1.5,0.4,1.5,1.5c0,1.1-0.7,1.5-1.5,1.5h-11.5c-0.8,0-1.5-0.4-1.5-1.5c0-1.1,0.7-1.5,1.5-1.5h4.3
	v-16.9h-4.3c-0.8,0-1.5-0.4-1.5-1.5s0.7-1.5,1.5-1.5h11.5c0.8,0,1.5,0.4,1.5,1.5s-0.7,1.5-1.5,1.5h-4.3V234.4z"/>
<path d="M546.4,217.5v1.1c0,0.9-0.4,1.5-1.5,1.5s-1.5-0.5-1.5-1.5v-4h14.5v4c0,0.9-0.4,1.5-1.5,1.5c-1.1,0-1.5-0.5-1.5-1.5v-1.1
	h-2.8v18.4c0,0.9-0.4,1.5-1.5,1.5c-1.1,0-1.5-0.5-1.5-1.5v-18.4H546.4z"/>
<path d="M573.2,235.9c0,0.9-0.4,1.5-1.5,1.5c-1.1,0-1.5-0.5-1.5-1.5v-9.4l-5.8-7.5v-3c0-0.9,0.4-1.5,1.5-1.5c1.1,0,1.5,0.5,1.5,1.5
	v2l4.3,5.6l4.3-5.6v-2c0-0.9,0.4-1.5,1.5-1.5c1.1,0,1.5,0.5,1.5,1.5v3l-5.8,7.5L573.2,235.9L573.2,235.9z"/>
</svg>
